<svg id="Capa_1" data-name="Capa 1" xmlns="http://www.w3.org/2000/svg" viewBox="0 0 332.39 182.83"><defs><style>.cls-1{fill:#86c6b9;}</style></defs><path class="cls-1" d="M149.72,124.06q158.76,0,317.54-.07c2.8,0,3.44.63,3.43,3.43q-.13,86.39-.07,172.79c-3.38,3-7.75,2.44-11.69,2.93-15.3,1.88-30.66,2.84-46.09,3.44-13.21.51-26.41.14-39.5-.55C328.09,303.67,284,295.21,242,277.8,220,268.71,199.29,257.43,181,242.13c-15-12.5-27.53-27-35.45-45a82,82,0,0,1-6.64-43.62,89.08,89.08,0,0,1,6.87-24.64A10,10,0,0,1,149.72,124.06Z" transform="translate(-138.3 -123.99)"/></svg>